<?xml version="1.0" encoding="utf-8"?>
<!-- Generator: Adobe Illustrator 23.0.2, SVG Export Plug-In . SVG Version: 6.00 Build 0)  -->
<svg version="1.1" id="Layer_1" xmlns="http://www.w3.org/2000/svg" xmlns:xlink="http://www.w3.org/1999/xlink" x="0px" y="0px"
	 width="256px" height="256px" viewBox="0 0 256 256" style="enable-background:new 0 0 256 256;" xml:space="preserve">
<style type="text/css">
	.st0{fill:url(#SVGID_1_);}
	.st1{fill:url(#SVGID_2_);}
	.st2{fill:url(#SVGID_3_);}
	.st3{fill:url(#SVGID_4_);}
	.st4{fill:url(#SVGID_5_);}
	.st5{fill:url(#SVGID_6_);}
	.st6{fill:url(#SVGID_7_);}
	.st7{fill:url(#SVGID_8_);}
	.st8{fill:url(#SVGID_9_);}
	.st9{fill:url(#SVGID_10_);}
	.st10{fill:url(#SVGID_11_);}
	.st11{fill:url(#SVGID_12_);}
	.st12{fill:url(#SVGID_13_);}
	.st13{fill:url(#SVGID_14_);}
	.st14{fill:url(#SVGID_15_);}
	.st15{fill:url(#SVGID_16_);}
	.st16{fill:url(#SVGID_17_);}
	.st17{fill:url(#SVGID_18_);}
	.st18{fill:url(#SVGID_19_);}
	.st19{fill:url(#SVGID_20_);}
	.st20{fill:url(#SVGID_21_);}
	.st21{fill:url(#SVGID_22_);}
	.st22{fill:url(#SVGID_23_);}
	.st23{fill:url(#SVGID_24_);}
	.st24{fill:url(#SVGID_25_);}
	.st25{fill:url(#SVGID_26_);}
	.st26{fill:url(#SVGID_27_);}
	.st27{fill:url(#SVGID_28_);}
	.st28{fill:url(#SVGID_29_);}
	.st29{fill:url(#SVGID_30_);}
	.st30{fill:url(#SVGID_31_);}
	.st31{fill:url(#SVGID_32_);}
	.st32{fill:url(#SVGID_33_);}
</style>
<linearGradient id="SVGID_1_" gradientUnits="userSpaceOnUse" x1="51.0379" y1="51.0378" x2="204.962" y2="204.9618">
	<stop  offset="0" style="stop-color:#6AC77C"/>
	<stop  offset="0.163" style="stop-color:#61C385"/>
	<stop  offset="0.4288" style="stop-color:#49B99D"/>
	<stop  offset="0.7623" style="stop-color:#23A9C5"/>
	<stop  offset="1" style="stop-color:#039BE5"/>
</linearGradient>
<path class="st0" d="M128,51.2c31.79,18.36,58.44,45,76.8,76.8c-18.36,31.79-45,58.44-76.8,76.8c-31.79-18.36-58.44-45-76.8-76.8
	C69.56,96.21,96.21,69.56,128,51.2 M128,0c-2.76,0-5.51,0.62-8.03,1.85C68.6,26.89,26.89,68.6,1.85,119.96
	c-2.46,5.05-2.46,11.02,0,16.07c25.05,51.36,66.76,93.07,118.12,118.12c2.52,1.23,5.28,1.85,8.03,1.85s5.51-0.62,8.04-1.85
	c51.36-25.05,93.07-66.76,118.12-118.12c2.46-5.05,2.46-11.02,0-16.07C229.11,68.6,187.4,26.89,136.04,1.85
	C133.51,0.62,130.76,0,128,0L128,0z"/>
</svg>
