<?xml version="1.0" encoding="utf-8"?>
<!-- Generator: Adobe Illustrator 16.0.0, SVG Export Plug-In . SVG Version: 6.00 Build 0)  -->
<!DOCTYPE svg PUBLIC "-//W3C//DTD SVG 1.1//EN" "http://www.w3.org/Graphics/SVG/1.1/DTD/svg11.dtd">
<svg version="1.1" id="Layer_1" xmlns="http://www.w3.org/2000/svg" xmlns:xlink="http://www.w3.org/1999/xlink" x="0px" y="0px"
	 width="300px" height="300px" viewBox="0 0 300 300" enable-background="new 0 0 300 300" xml:space="preserve">
<g>
	<radialGradient id="SVGID_1_" cx="150" cy="150" r="131.001" gradientUnits="userSpaceOnUse">
		<stop  offset="0" style="stop-color:#DCDDDE"/>
		<stop  offset="0.2024" style="stop-color:#D8DCDC"/>
		<stop  offset="0.365" style="stop-color:#D1DAD9"/>
		<stop  offset="0.5137" style="stop-color:#C6D7D5"/>
		<stop  offset="0.6543" style="stop-color:#B6D3CF"/>
		<stop  offset="0.7891" style="stop-color:#9ECEC8"/>
		<stop  offset="0.9177" style="stop-color:#7DC7BF"/>
		<stop  offset="1" style="stop-color:#61C5BA"/>
	</radialGradient>
	<path fill="url(#SVGID_1_)" d="M281.002,150.003c0,72.347-58.649,130.997-131,130.997c-72.354,0-131.004-58.65-131.004-130.997
		C18.998,77.651,77.648,19,150.002,19C222.353,19,281.002,77.651,281.002,150.003z"/>
	<circle opacity="0.95" cx="150.002" cy="150.003" r="66.852"/>
</g>
<g>
	<path opacity="0.9" fill="#FFFFFF" d="M110.518,150.122h-4.919v8.679c0,1.199-1,2.199-2.239,2.199c-1.2,0-2.2-1-2.2-2.199v-23.597
		c0-1.239,1-2.199,2.2-2.199h0.039h7.119c4.76,0,8.599,3.839,8.599,8.599C119.116,146.282,115.277,150.122,110.518,150.122z
		 M105.599,145.683h4.919c2.319,0,4.119-1.84,4.159-4.079c-0.04-2.32-1.84-4.159-4.159-4.159h-4.919V145.683z"/>
	<path opacity="0.9" fill="#FFFFFF" d="M133.678,161c-6.439,0-11.559-5.199-11.559-11.558v-14.238c0-1.239,0.96-2.199,2.199-2.199
		c1.2,0,2.24,0.96,2.24,2.199v14.238c0,3.919,3.199,7.118,7.119,7.118c3.959,0,7.118-3.199,7.118-7.118v-14.238
		c0-1.239,1-2.199,2.24-2.199c1.239,0,2.199,0.96,2.199,2.199v14.238C145.235,155.801,140.076,161,133.678,161z"/>
	<path opacity="0.9" fill="#FFFFFF" d="M161.597,150.122h-4.919v8.679c0,1.199-1,2.199-2.239,2.199c-1.2,0-2.2-1-2.2-2.199v-23.597
		c0-1.239,1-2.199,2.2-2.199h0.04h7.118c4.76,0,8.599,3.839,8.599,8.599C170.195,146.282,166.356,150.122,161.597,150.122z
		 M156.678,145.683h4.919c2.319,0,4.119-1.84,4.159-4.079c-0.04-2.32-1.84-4.159-4.159-4.159h-4.919V145.683z"/>
	<path opacity="0.9" fill="#FFFFFF" d="M173.438,135.204c0-1.239,0.96-2.199,2.199-2.199c1.2,0,2.24,0.96,2.24,2.199v23.597
		c0,1.239-1.04,2.199-2.24,2.199c-1.239,0-2.199-0.96-2.199-2.199V135.204z"/>
	<path opacity="0.9" fill="#FFFFFF" d="M182.958,158.801v-23.597c0-1.199,0.96-2.199,2.2-2.199c1.239,0,2.239,1,2.239,2.199v21.356
		h10.838c1.16,0,2.2,1,2.2,2.24c0,1.199-1.04,2.199-2.2,2.199h-12.958c-0.08,0-0.08,0-0.08,0c-0.039,0-0.039,0-0.039,0
		C183.918,161,182.958,160,182.958,158.801z"/>
</g>
</svg>
